<?xml version="1.0" encoding="UTF-8"?>
<svg version="1.1" xmlns="http://www.w3.org/2000/svg" width="500" height="500">
<path d="M0 0 C165 0 330 0 500 0 C500 165 500 330 500 500 C335 500 170 500 0 500 C0 335 0 170 0 0 Z " fill="#000001" transform="translate(0,0)"/>
<path d="M0 0 C165 0 330 0 500 0 C500 165 500 330 500 500 C335 500 170 500 0 500 C0 335 0 170 0 0 Z M240 32 C239.67 32.66 239.34 33.32 239 34 C237.0995468 34.67873329 235.19884933 35.35679102 233.296875 36.03125 C230.05623839 37.39804911 227.35465512 39.32923484 224.4765625 41.33203125 C221.75705412 43.16362444 218.96732119 44.80334893 216.125 46.4375 C212.09428298 48.7554187 208.15163554 51.158462 204.25 53.6875 C201.02777899 55.77026894 197.8332289 57.6510733 194.375 59.3125 C190.94791667 60.60416667 190.94791667 60.60416667 190 63 C188.09662327 63.6797774 186.19292632 64.35867196 184.28759766 65.03295898 C181.90870878 66.03859173 180.0101038 67.24061522 177.8984375 68.72265625 C171.91652497 72.79809604 165.61114547 76.24995221 159.2890625 79.76367188 C157.94328125 80.52067383 157.94328125 80.52067383 156.5703125 81.29296875 C155.36012451 81.96622192 155.36012451 81.96622192 154.12548828 82.65307617 C152.09755818 83.93817729 150.675846 85.30228513 149 87 C146.63762013 88.24789242 144.2899479 89.42820629 141.875 90.5625 C137.18835813 92.42502832 137.18835813 92.42502832 134 96 C132.15234375 96.8515625 132.15234375 96.8515625 129.9375 97.625 C128.83728516 98.01558594 128.83728516 98.01558594 127.71484375 98.4140625 C127.14894531 98.60742188 126.58304687 98.80078125 126 99 C126 99.66 126 100.32 126 101 C124.6696875 101.4021875 124.6696875 101.4021875 123.3125 101.8125 C117.70923408 103.72824368 117.70923408 103.72824368 114 108 C112 108.66666667 110 109.33333333 108 110 C107.67 110.66 107.34 111.32 107 112 C105.58839249 112.68146569 104.14484538 113.29778628 102.6875 113.875 C99.84058249 115.07912077 98.14246368 115.85753632 95.9375 118.0625 C93.45964344 120.54035656 91.00658104 121.24838817 87.70703125 122.2890625 C85.7937944 122.86762549 85.7937944 122.86762549 85 125 C83.328125 125.74609375 83.328125 125.74609375 81.25 126.4375 C77.8462633 127.57424413 75.04336139 129.09564812 72 131 C70.43765625 131.9590625 70.43765625 131.9590625 68.84375 132.9375 C67.7403125 133.618125 66.636875 134.29875 65.5 135 C59.04213236 138.98335761 59.04213236 138.98335761 56.34241676 140.04975224 C53.88987022 141.70513105 53.88987022 141.70513105 53.53935313 143.78997409 C53.34989175 146.25292849 53.33416735 148.67123525 53.36508179 151.14146423 C53.35728183 152.08858939 53.34948188 153.03571455 53.34144557 154.01154047 C53.32143073 157.19940901 53.33732759 160.38609628 53.35302734 163.57397461 C53.34625542 165.85361938 53.33735469 168.13325869 53.32647705 170.41288757 C53.30362558 176.61539569 53.31254476 182.81748935 53.32837248 189.02000499 C53.34100265 195.5017567 53.32929926 201.98347216 53.32144165 208.46522522 C53.31175223 220.05084265 53.32732404 231.63627037 53.35273834 243.22185791 C53.37507265 253.7286468 53.37120247 264.23515947 53.34814453 274.74194336 C53.3213919 286.93802207 53.31142451 299.13390401 53.32620585 311.33001143 C53.3340116 317.78784893 53.33501105 324.24549609 53.31852341 330.70332146 C53.30410592 336.77484562 53.31405125 342.84584699 53.34299469 348.91731453 C53.34962027 351.14901994 53.34768288 353.38076915 53.33668137 355.61245728 C53.32307276 358.65275453 53.34008579 361.69136328 53.36508179 364.73155212 C53.35392818 365.6205544 53.34277457 366.50955668 53.33128297 367.42549843 C53.39394891 372.49956631 53.39394891 372.49956631 56.36390114 376.53240299 C58.9849432 377.99161742 61.03253807 378.66086149 64 379 C64 379.66 64 380.32 64 381 C67.2878978 382.84015498 70.58091326 384.67095047 73.875 386.5 C74.81214844 387.02464844 75.74929687 387.54929687 76.71484375 388.08984375 C78.05869141 388.83427734 78.05869141 388.83427734 79.4296875 389.59375 C80.25710449 390.05458984 81.08452148 390.51542969 81.93701172 390.99023438 C83.91658375 392.14654317 83.91658375 392.14654317 86 392 C86 392.66 86 393.32 86 394 C89.80558502 396.14163835 93.61421175 398.27773026 97.42578125 400.40869141 C98.72253512 401.13470466 100.01843897 401.86223831 101.31347656 402.59130859 C103.17292516 403.63778235 105.03534204 404.6787862 106.8984375 405.71875 C108.01911621 406.34716797 109.13979492 406.97558594 110.29443359 407.62304688 C112.7911064 409.15119052 112.7911064 409.15119052 115 409 C115 409.66 115 410.32 115 411 C116.2375 411.4125 117.475 411.825 118.75 412.25 C122.38342224 413.6013781 124.33671473 415.15916238 127 418 C130.78274889 420.26207287 130.78274889 420.26207287 135 421 C135 421.66 135 422.32 135 423 C135.54269531 423.18175781 136.08539063 423.36351562 136.64453125 423.55078125 C137.35996094 423.80214844 138.07539063 424.05351562 138.8125 424.3125 C139.52019531 424.55613281 140.22789062 424.79976563 140.95703125 425.05078125 C143.18205579 426.08458806 144.29965193 427.25605326 146 429 C147.49152027 429.9438319 149.01500858 430.83854671 150.5625 431.6875 C151.34753906 432.12449219 152.13257813 432.56148438 152.94140625 433.01171875 C154.9199105 434.14426223 154.9199105 434.14426223 157 434 C157 434.66 157 435.32 157 436 C159.31 436.66 161.62 437.32 164 438 C164 438.66 164 439.32 164 440 C164.54269531 440.18175781 165.08539063 440.36351562 165.64453125 440.55078125 C166.35996094 440.80214844 167.07539063 441.05351562 167.8125 441.3125 C168.52019531 441.55613281 169.22789062 441.79976563 169.95703125 442.05078125 C172.18216513 443.08463886 173.30400278 444.25154926 175 446 C176.44741195 446.94628222 177.92968049 447.84078179 179.4375 448.6875 C180.19933594 449.12449219 180.96117187 449.56148438 181.74609375 450.01171875 C184.2003769 451.26771205 184.2003769 451.26771205 188 451 C188.33 451.99 188.66 452.98 189 454 C189.99 454.33 190.98 454.66 192 455 C192.33 455.66 192.66 456.32 193 457 C194.71775625 458.03468875 196.47479603 459.00480593 198.25 459.9375 C201.89990264 461.86602964 205.46620035 463.86671961 209 466 C211.99205811 467.55587022 214.7999497 468.93331657 218 470 C218 470.66 218 471.32 218 472 C221.2878978 473.84015498 224.58091326 475.67095047 227.875 477.5 C228.81214844 478.02464844 229.74929687 478.54929687 230.71484375 479.08984375 C232.05869141 479.83427734 232.05869141 479.83427734 233.4296875 480.59375 C234.25710449 481.05458984 235.08452148 481.51542969 235.93701172 481.99023438 C237.91658375 483.14654317 237.91658375 483.14654317 240 483 C240 483.66 240 484.32 240 485 C243.52709708 486.61238724 246.12546271 487.34531375 250 487 C252.16638787 485.89593944 252.16638787 485.89593944 254.1875 484.3125 C258.23639092 481.44368784 262.36058647 479.20924454 266.8359375 477.078125 C269.2025899 475.95555623 269.2025899 475.95555623 272 474 C272 473.34 272 472.68 272 472 C273.24330078 471.64421875 273.24330078 471.64421875 274.51171875 471.28125 C278.60905399 469.77629372 282.09237968 467.75702554 285.8125 465.5 C287.32020664 464.59878121 288.82802236 463.69774489 290.3359375 462.796875 C291.10518555 462.33474609 291.87443359 461.87261719 292.66699219 461.39648438 C296.40938359 459.15637566 300.17453745 456.95530829 303.9375 454.75 C309.18135702 451.66882026 314.40960272 448.5640787 319.6171875 445.421875 C322.37573471 443.77579109 325.1563231 442.17003447 327.9375 440.5625 C331.87602842 438.27593746 335.73851422 435.91056203 339.5625 433.4375 C343.93110535 430.62688515 348.3917836 428.11675969 352.97265625 425.671875 C356.6038415 423.66652366 360.14290553 421.52856123 363.6875 419.375 C368.69288439 416.33729719 373.69374884 413.49068932 379 411 C379 410.34 379 409.68 379 409 C379.71285156 408.73058594 380.42570312 408.46117187 381.16015625 408.18359375 C384.04708254 406.98037688 386.70660559 405.58482837 389.4375 404.0625 C393.25503019 401.95254075 397.07812575 399.90793882 401 398 C401 397.34 401 396.68 401 396 C403.31 395.34 405.62 394.68 408 394 C408 393.34 408 392.68 408 392 C408.71027344 391.73574219 409.42054688 391.47148437 410.15234375 391.19921875 C413.1286513 389.94582174 415.78727647 388.46253086 418.5625 386.8125 C419.6040625 386.19761719 420.645625 385.58273437 421.71875 384.94921875 C422.8015625 384.30597656 423.884375 383.66273438 425 383 C427.18576252 381.70539533 429.37319631 380.41360715 431.5625 379.125 C432.53316406 378.55007813 433.50382812 377.97515625 434.50390625 377.3828125 C437 376 437 376 440 375 C440 298.44 440 221.88 440 143 C438.68 142.67 437.36 142.34 436 142 C436 141.34 436 140.68 436 140 C433.35261084 138.5393715 432.10551666 138 429 138 C429 137.34 429 136.68 429 136 C428.030625 135.731875 427.06125 135.46375 426.0625 135.1875 C425.051875 134.795625 424.04125 134.40375 423 134 C422.67 133.01 422.34 132.02 422 131 C420.12612784 130.19787372 420.12612784 130.19787372 417.9375 129.8125 C417.20402344 129.65394531 416.47054688 129.49539062 415.71484375 129.33203125 C415.14894531 129.22246094 414.58304687 129.11289063 414 129 C414 128.34 414 127.68 414 127 C410.7121022 125.15984502 407.41908674 123.32904953 404.125 121.5 C402.71927734 120.71302734 402.71927734 120.71302734 401.28515625 119.91015625 C400.38925781 119.41386719 399.49335938 118.91757813 398.5703125 118.40625 C397.74289551 117.94541016 396.91547852 117.48457031 396.06298828 117.00976562 C394.08341625 115.85345683 394.08341625 115.85345683 392 116 C392 115.34 392 114.68 392 114 C391.113125 113.566875 390.22625 113.13375 389.3125 112.6875 C386 111 386 111 383.25 109.3125 C381.14621257 107.83204299 381.14621257 107.83204299 379 108 C379 107.34 379 106.68 379 106 C376.69 105.34 374.38 104.68 372 104 C372 103.34 372 102.68 372 102 C369.04550087 100.3264663 366.0857982 98.66236015 363.125 97 C362.28324219 96.52304688 361.44148438 96.04609375 360.57421875 95.5546875 C359.76855469 95.10351562 358.96289062 94.65234375 358.1328125 94.1875 C357.38918457 93.76855469 356.64555664 93.34960938 355.87939453 92.91796875 C354.04908534 91.85370549 354.04908534 91.85370549 352 92 C352 91.34 352 90.68 352 90 C350.39125 89.2265625 350.39125 89.2265625 348.75 88.4375 C343.86097551 86.01051114 339.21209832 83.20627696 334.5390625 80.390625 C332.19013356 78.83987865 332.19013356 78.83987865 330 79 C330 78.34 330 77.68 330 77 C327.69 76.34 325.38 75.68 323 75 C323 74.34 323 73.68 323 73 C320.04550087 71.3264663 317.0857982 69.66236015 314.125 68 C313.28324219 67.52304688 312.44148438 67.04609375 311.57421875 66.5546875 C310.76855469 66.10351562 309.96289062 65.65234375 309.1328125 65.1875 C308.38918457 64.76855469 307.64555664 64.34960938 306.87939453 63.91796875 C305.04908534 62.85370549 305.04908534 62.85370549 303 63 C303 62.34 303 61.68 303 61 C301.865625 60.54625 300.73125 60.0925 299.5625 59.625 C296 58 296 58 295 56 C293.09233153 54.9639138 291.14823659 53.99426479 289.1875 53.0625 C285.46992852 51.29201224 282.27363167 49.4785045 279 47 C276.35065178 46.28566879 276.35065178 46.28566879 274 46 C274 45.34 274 44.68 274 44 C270.49915662 41.99799679 266.9936615 40.00442931 263.48364258 38.01855469 C262.29027612 37.34182166 261.0982054 36.66279837 259.9074707 35.98144531 C258.19564788 35.00244535 256.47874382 34.03234701 254.76171875 33.0625 C253.73006592 32.47597656 252.69841309 31.88945312 251.63549805 31.28515625 C247.28428637 29.16336113 244.34768623 30.29873148 240 32 Z " fill="#000000" transform="translate(0,0)"/>
<path d="M0 0 C1.02158203 0.58330078 2.04316406 1.16660156 3.09570312 1.76757812 C4.15080078 2.37923828 5.20589844 2.99089844 6.29296875 3.62109375 C7.36740234 4.23662109 8.44183594 4.85214844 9.54882812 5.48632812 C12.19634393 7.00423719 14.83998731 8.52849139 17.48046875 10.05859375 C17.48046875 10.71859375 17.48046875 11.37859375 17.48046875 12.05859375 C18.44984375 12.26484375 19.41921875 12.47109375 20.41796875 12.68359375 C24.60537719 13.85572836 27.77176642 16.09563178 31.26953125 18.62109375 C33.47810071 20.1627335 33.47810071 20.1627335 36.19140625 21.12109375 C38.48046875 22.05859375 38.48046875 22.05859375 39.48046875 24.05859375 C41.79012723 25.11212218 44.12344615 26.11578471 46.48046875 27.05859375 C46.48046875 27.71859375 46.48046875 28.37859375 46.48046875 29.05859375 C47.14433594 29.30351563 47.80820312 29.5484375 48.4921875 29.80078125 C52.22430845 31.37168706 55.73496782 33.25648511 59.29296875 35.18359375 C59.98583984 35.55613281 60.67871094 35.92867187 61.39257812 36.3125 C63.08981711 37.22549752 64.78532013 38.14172091 66.48046875 39.05859375 C66.48046875 39.71859375 66.48046875 40.37859375 66.48046875 41.05859375 C68.79046875 41.71859375 71.10046875 42.37859375 73.48046875 43.05859375 C73.48046875 43.71859375 73.48046875 44.37859375 73.48046875 45.05859375 C74.11984375 45.28546875 74.75921875 45.51234375 75.41796875 45.74609375 C78.80209934 47.19643543 81.91929471 48.93958679 85.12109375 50.75 C88.52001647 52.63516409 91.99183047 54.3459895 95.48046875 56.05859375 C95.48046875 56.71859375 95.48046875 57.37859375 95.48046875 58.05859375 C96.31835938 58.30351563 97.15625 58.5484375 98.01953125 58.80078125 C101.92473722 60.22005475 105.29018146 62.07717141 108.85546875 64.18359375 C109.49613281 64.55613281 110.13679688 64.92867188 110.796875 65.3125 C112.36095352 66.22293377 113.92112409 67.14007566 115.48046875 68.05859375 C115.48046875 68.71859375 115.48046875 69.37859375 115.48046875 70.05859375 C117.79046875 70.71859375 120.10046875 71.37859375 122.48046875 72.05859375 C122.48046875 72.71859375 122.48046875 73.37859375 122.48046875 74.05859375 C123.36734375 74.32671875 124.25421875 74.59484375 125.16796875 74.87109375 C128.25936685 75.9793308 130.72507326 77.29820219 133.48046875 79.05859375 C134.14046875 79.38859375 134.80046875 79.71859375 135.48046875 80.05859375 C135.48046875 80.71859375 135.48046875 81.37859375 135.48046875 82.05859375 C136.29773438 82.29320313 137.115 82.5278125 137.95703125 82.76953125 C142.2111887 84.32593032 145.94420271 86.42029333 149.85546875 88.68359375 C150.59152344 89.10382813 151.32757813 89.5240625 152.0859375 89.95703125 C153.88684525 90.98612139 155.68404193 92.02170131 157.48046875 93.05859375 C157.48046875 93.71859375 157.48046875 94.37859375 157.48046875 95.05859375 C160.45046875 96.04859375 163.42046875 97.03859375 166.48046875 98.05859375 C166.48046875 98.71859375 166.48046875 99.37859375 166.48046875 100.05859375 C168.46046875 100.71859375 170.44046875 101.37859375 172.48046875 102.05859375 C172.48046875 102.71859375 172.48046875 103.37859375 172.48046875 104.05859375 C173.26421875 104.20296875 174.04796875 104.34734375 174.85546875 104.49609375 C177.48046875 105.05859375 177.48046875 105.05859375 179.48046875 106.05859375 C179.48046875 106.71859375 179.48046875 107.37859375 179.48046875 108.05859375 C180.80046875 108.38859375 182.12046875 108.71859375 183.48046875 109.05859375 C183.48046875 185.61859375 183.48046875 262.17859375 183.48046875 341.05859375 C178.86046875 343.36859375 174.24046875 345.67859375 169.48046875 348.05859375 C165.15514265 350.72805212 165.15514265 350.72805212 160.8828125 353.48046875 C153.91363707 358.05859375 153.91363707 358.05859375 151.48046875 358.05859375 C151.15046875 359.04859375 150.82046875 360.03859375 150.48046875 361.05859375 C148.50046875 361.38859375 146.52046875 361.71859375 144.48046875 362.05859375 C144.15046875 363.04859375 143.82046875 364.03859375 143.48046875 365.05859375 C141.9313544 365.74708902 140.37477263 366.42159642 138.79296875 367.03125 C134.67817879 368.85927324 130.90035651 371.30225022 127.0546875 373.6328125 C124.48046875 375.05859375 124.48046875 375.05859375 122.48046875 375.05859375 C122.15046875 376.04859375 121.82046875 377.03859375 121.48046875 378.05859375 C119.87846104 378.77939028 118.26933874 379.48709353 116.63427734 380.12939453 C112.30277457 381.99809772 108.3305613 384.57132838 104.29296875 386.99609375 C103.33261719 387.56803467 102.37226563 388.13997559 101.3828125 388.72924805 C94.06592419 393.09165463 86.76921881 397.48796616 79.47119141 401.88183594 C74.73478679 404.72728054 69.97554856 407.52271295 65.16796875 410.24609375 C60.60804489 412.82987448 56.09112375 415.47343386 51.60546875 418.18359375 C44.69225094 422.34978151 37.75022748 426.46639371 30.79296875 430.55859375 C29.74061035 431.18266113 28.68825195 431.80672852 27.60400391 432.44970703 C26.61062012 433.03220215 25.61723633 433.61469727 24.59375 434.21484375 C23.70469971 434.73884766 22.81564941 435.26285156 21.8996582 435.80273438 C19.72217271 436.93311941 17.87699569 437.59899538 15.48046875 438.05859375 C15.48046875 438.71859375 15.48046875 439.37859375 15.48046875 440.05859375 C11.91312532 442.09904083 8.34454412 444.13708152 4.76953125 446.1640625 C4.16496094 446.50759766 3.56039062 446.85113281 2.9375 447.20507812 C1.69339464 447.91201646 0.44857721 448.61770282 -0.796875 449.32226562 C-3.83908365 450.93949294 -3.83908365 450.93949294 -6.51953125 453.05859375 C-13.93129596 452.3527114 -13.93129596 452.3527114 -16.51953125 451.05859375 C-16.51953125 450.39859375 -16.51953125 449.73859375 -16.51953125 449.05859375 C-17.16277344 448.82398438 -17.80601562 448.589375 -18.46875 448.34765625 C-22.55867977 446.61951691 -26.42169259 444.53134458 -30.33203125 442.43359375 C-31.51442383 441.80324219 -31.51442383 441.80324219 -32.72070312 441.16015625 C-34.65488451 440.12859285 -36.58777108 439.09468203 -38.51953125 438.05859375 C-38.51953125 437.39859375 -38.51953125 436.73859375 -38.51953125 436.05859375 C-41.20735942 434.68145932 -43.91892727 433.46649486 -46.70703125 432.30859375 C-51.01134861 430.4232316 -54.74539658 428.03849195 -58.57421875 425.328125 C-60.59361695 423.89297874 -60.59361695 423.89297874 -63.51953125 423.05859375 C-63.84953125 422.39859375 -64.17953125 421.73859375 -64.51953125 421.05859375 C-66.53622952 419.92508841 -66.53622952 419.92508841 -68.51953125 419.05859375 C-68.51953125 418.39859375 -68.51953125 417.73859375 -68.51953125 417.05859375 C-69.32390625 416.99671875 -70.12828125 416.93484375 -70.95703125 416.87109375 C-75.63906059 415.8032625 -79.54645803 413.74355481 -83.51953125 411.05859375 C-83.84953125 410.39859375 -84.17953125 409.73859375 -84.51953125 409.05859375 C-86.40217006 408.15515691 -86.40217006 408.15515691 -88.58203125 407.43359375 C-89.68224609 407.04300781 -89.68224609 407.04300781 -90.8046875 406.64453125 C-91.37058594 406.45117188 -91.93648438 406.2578125 -92.51953125 406.05859375 C-92.51953125 405.39859375 -92.51953125 404.73859375 -92.51953125 404.05859375 C-94.82953125 403.39859375 -97.13953125 402.73859375 -99.51953125 402.05859375 C-99.51953125 401.39859375 -99.51953125 400.73859375 -99.51953125 400.05859375 C-100.78796875 399.68734375 -100.78796875 399.68734375 -102.08203125 399.30859375 C-111.63064236 395.83637153 -111.63064236 395.83637153 -113.51953125 392.05859375 C-115.40217006 391.15515691 -115.40217006 391.15515691 -117.58203125 390.43359375 C-118.68224609 390.04300781 -118.68224609 390.04300781 -119.8046875 389.64453125 C-120.37058594 389.45117188 -120.93648438 389.2578125 -121.51953125 389.05859375 C-121.51953125 388.39859375 -121.51953125 387.73859375 -121.51953125 387.05859375 C-122.40640625 386.79046875 -123.29328125 386.52234375 -124.20703125 386.24609375 C-131.78389907 383.52985812 -131.78389907 383.52985812 -133.51953125 380.05859375 C-135.40217006 379.15515691 -135.40217006 379.15515691 -137.58203125 378.43359375 C-138.68224609 378.04300781 -138.68224609 378.04300781 -139.8046875 377.64453125 C-140.37058594 377.45117188 -140.93648437 377.2578125 -141.51953125 377.05859375 C-141.51953125 376.39859375 -141.51953125 375.73859375 -141.51953125 375.05859375 C-142.39367676 374.79127441 -143.26782227 374.52395508 -144.16845703 374.24853516 C-147.40989206 373.09752581 -150.15720821 371.72689122 -153.13671875 370.01953125 C-154.15507812 369.43945312 -155.1734375 368.859375 -156.22265625 368.26171875 C-157.269375 367.6584375 -158.31609375 367.05515625 -159.39453125 366.43359375 C-160.46445313 365.82257813 -161.534375 365.2115625 -162.63671875 364.58203125 C-165.2670888 363.07896265 -167.89454051 361.57103089 -170.51953125 360.05859375 C-170.51953125 359.39859375 -170.51953125 358.73859375 -170.51953125 358.05859375 C-171.33679688 357.82398438 -172.1540625 357.589375 -172.99609375 357.34765625 C-177.2502512 355.79125718 -180.98326521 353.69689417 -184.89453125 351.43359375 C-185.99861328 350.80324219 -185.99861328 350.80324219 -187.125 350.16015625 C-188.92590775 349.13106611 -190.72310443 348.09548619 -192.51953125 347.05859375 C-192.51953125 346.39859375 -192.51953125 345.73859375 -192.51953125 345.05859375 C-193.42703125 344.79046875 -194.33453125 344.52234375 -195.26953125 344.24609375 C-200.39123083 342.37470352 -200.39123083 342.37470352 -202.51953125 340.05859375 C-203.15991153 337.0362082 -203.10641124 334.03097084 -203.10148621 330.95077515 C-203.12248799 329.53537915 -203.12248799 329.53537915 -203.14391404 328.0913893 C-203.18577281 324.9154803 -203.198759 321.74011415 -203.21166992 318.56396484 C-203.23508794 316.29242371 -203.2600526 314.02089807 -203.28645325 311.74938965 C-203.35185201 305.56738571 -203.38991862 299.38551835 -203.4190805 293.20324659 C-203.43745478 289.34153614 -203.45978675 285.47986657 -203.48311806 281.61818314 C-203.54584412 270.92261392 -203.6001275 260.22710057 -203.62523937 249.53137779 C-203.63185896 246.75610719 -203.63849898 243.98083666 -203.64526367 241.20556641 C-203.64693632 240.51580108 -203.64860897 239.82603575 -203.65033231 239.11536844 C-203.67916759 227.94675276 -203.77259834 216.77966993 -203.89336523 205.61170773 C-204.01639773 194.14067805 -204.08153984 182.67078491 -204.09354001 171.1990248 C-204.10164303 164.75966101 -204.13445697 158.32266363 -204.22774315 151.88392258 C-204.31406862 145.82371381 -204.32893544 139.76747124 -204.28931999 133.70681763 C-204.28706273 131.48513742 -204.31039707 129.26325862 -204.36144638 127.04216385 C-204.71569249 110.70397811 -204.71569249 110.70397811 -201.07075334 106.31346941 C-197.55038007 103.37072349 -193.68319111 101.53584098 -189.4381367 99.86697125 C-186.36709922 98.57303267 -183.65553852 96.82366597 -180.83203125 95.05859375 C-177.6883862 93.18023322 -175.07403886 91.87399305 -171.51953125 91.05859375 C-171.06578125 90.58421875 -170.61203125 90.10984375 -170.14453125 89.62109375 C-168.51953125 88.05859375 -168.51953125 88.05859375 -165.64453125 87.18359375 C-162.3721607 86.26294268 -162.3721607 86.26294268 -160.14453125 83.62109375 C-157.2687927 80.81382516 -155.15239507 79.9602689 -151.38671875 78.83203125 C-149.22426976 77.93628878 -148.12281062 76.73433773 -146.51953125 75.05859375 C-145.18619792 74.72526042 -143.85286458 74.39192708 -142.51953125 74.05859375 C-142.08640625 73.62546875 -141.65328125 73.19234375 -141.20703125 72.74609375 C-138.63943392 70.17849642 -135.7307738 68.75179437 -132.51953125 67.05859375 C-131.85953125 67.05859375 -131.19953125 67.05859375 -130.51953125 67.05859375 C-130.51953125 66.39859375 -130.51953125 65.73859375 -130.51953125 65.05859375 C-129.97683594 64.87683594 -129.43414062 64.69507812 -128.875 64.5078125 C-128.15957031 64.25644531 -127.44414062 64.00507812 -126.70703125 63.74609375 C-125.99933594 63.50246094 -125.29164063 63.25882812 -124.5625 63.0078125 C-122.48802086 62.18994041 -122.48802086 62.18994041 -121.15625 60.66796875 C-118.79911798 58.35021603 -116.07697301 57.12757699 -113.14453125 55.62109375 C-109.95577865 53.98273466 -107.02411991 52.46970801 -104.2421875 50.203125 C-100.22228034 47.03679927 -95.7905548 44.67835604 -91.33203125 42.18359375 C-89.52541456 41.16647766 -87.71942291 40.14825054 -85.9140625 39.12890625 C-85.02412598 38.6277832 -84.13418945 38.12666016 -83.21728516 37.61035156 C-79.66881526 35.56925883 -76.18891235 33.42263113 -72.7175293 31.25341797 C-70.61992996 30.11317015 -68.82582373 29.59473715 -66.51953125 29.05859375 C-66.06578125 28.60484375 -65.61203125 28.15109375 -65.14453125 27.68359375 C-62.91794018 25.45700268 -60.33336409 24.46551017 -57.51953125 23.05859375 C-55.86386827 21.85742649 -54.20886689 20.65528382 -52.5625 19.44140625 C-50.17002202 17.82202345 -47.6940583 16.47941918 -45.14453125 15.12109375 C-40.81138336 12.81244938 -36.770916 10.27621261 -32.71875 7.51171875 C-27.86731681 4.30615366 -23.17158452 1.46859425 -17.51953125 0.05859375 C-16.77703125 -0.68390625 -16.77703125 -0.68390625 -16.01953125 -1.44140625 C-11.2077018 -6.2532357 -4.98588823 -2.86897479 0 0 Z M-16.26953125 27.99609375 C-20.80270557 30.99015318 -25.3973442 33.73905322 -30.14453125 36.37109375 C-36.07096948 39.67359089 -41.97014022 43.01761288 -47.83203125 46.43359375 C-48.55535645 46.85036377 -49.27868164 47.26713379 -50.02392578 47.6965332 C-51.03688721 48.28954224 -51.03688721 48.28954224 -52.0703125 48.89453125 C-52.66497314 49.2404834 -53.25963379 49.58643555 -53.87231445 49.94287109 C-55.59023786 51.0246575 -55.59023786 51.0246575 -57.03979492 52.62744141 C-59.18580605 54.70299284 -61.71692949 55.14470187 -64.51953125 56.05859375 C-64.84953125 56.71859375 -65.17953125 57.37859375 -65.51953125 58.05859375 C-67.12156701 58.74210026 -68.72591793 59.42052067 -70.33935547 60.07666016 C-74.79013014 62.08125318 -78.90584828 64.73117867 -83.08203125 67.24609375 C-85.04901955 68.42004129 -87.01646709 69.59321968 -88.984375 70.765625 C-90.40919189 71.61568115 -90.40919189 71.61568115 -91.86279297 72.48291016 C-95.26947782 74.50337919 -98.69980927 76.47888425 -102.14453125 78.43359375 C-103.211875 79.04203125 -104.27921875 79.65046875 -105.37890625 80.27734375 C-107.00535488 81.19980715 -108.63216939 82.12166102 -110.26367188 83.03515625 C-111.97748056 83.99504027 -113.68610549 84.96416146 -115.39453125 85.93359375 C-116.38195312 86.48789063 -117.369375 87.0421875 -118.38671875 87.61328125 C-119.09054688 88.09023437 -119.794375 88.5671875 -120.51953125 89.05859375 C-120.51953125 89.71859375 -120.51953125 90.37859375 -120.51953125 91.05859375 C-123.98453125 92.04859375 -123.98453125 92.04859375 -127.51953125 93.05859375 C-127.51953125 93.71859375 -127.51953125 94.37859375 -127.51953125 95.05859375 C-128.36515625 95.30609375 -129.21078125 95.55359375 -130.08203125 95.80859375 C-136.8287987 98.14727348 -136.8287987 98.14727348 -141.51953125 103.05859375 C-143.09375 103.8125 -143.09375 103.8125 -145.20703125 104.62109375 C-150.38610637 106.80744489 -154.90864062 109.76109712 -159.55737305 112.88500977 C-162.79849726 115.04255338 -165.91489143 116.62463119 -169.51953125 118.05859375 C-170.01453125 119.04859375 -170.01453125 119.04859375 -170.51953125 120.05859375 C-172.49842086 120.78553279 -174.49907683 121.45675626 -176.51953125 122.05859375 C-176.72970097 148.5530863 -176.88844561 175.04745407 -176.9858408 201.54261208 C-177.03226368 213.84460934 -177.09556227 226.14608891 -177.19848633 238.44775391 C-177.28814443 249.16895271 -177.34624406 259.88977665 -177.3663277 270.61133993 C-177.37806933 276.289447 -177.4056931 281.96648159 -177.47110176 287.64424515 C-177.53216323 292.98791416 -177.55104164 298.33006845 -177.53750038 303.67405319 C-177.53997773 305.63571148 -177.55789993 307.59742006 -177.59238052 309.55877686 C-178.16545767 319.59693595 -178.16545767 319.59693595 -174.62299919 328.54737473 C-170.78697927 331.25429192 -167.10908543 332.25783109 -162.51953125 333.05859375 C-162.51953125 333.71859375 -162.51953125 334.37859375 -162.51953125 335.05859375 C-159.23163345 336.89874873 -155.93861799 338.72954422 -152.64453125 340.55859375 C-151.70738281 341.08324219 -150.77023438 341.60789062 -149.8046875 342.1484375 C-148.46083984 342.89287109 -148.46083984 342.89287109 -147.08984375 343.65234375 C-146.26242676 344.11318359 -145.43500977 344.57402344 -144.58251953 345.04882812 C-142.6029475 346.20513692 -142.6029475 346.20513692 -140.51953125 346.05859375 C-140.51953125 346.71859375 -140.51953125 347.37859375 -140.51953125 348.05859375 C-139.6584375 348.47753906 -138.79734375 348.89648438 -137.91015625 349.328125 C-133.52593862 351.56569229 -129.34668578 354.09899718 -125.12890625 356.6328125 C-122.72259961 358.21842585 -122.72259961 358.21842585 -120.51953125 358.05859375 C-120.51953125 358.71859375 -120.51953125 359.37859375 -120.51953125 360.05859375 C-118.20953125 360.71859375 -115.89953125 361.37859375 -113.51953125 362.05859375 C-113.51953125 362.71859375 -113.51953125 363.37859375 -113.51953125 364.05859375 C-110.23163345 365.89874873 -106.93861799 367.72954422 -103.64453125 369.55859375 C-102.70738281 370.08324219 -101.77023438 370.60789062 -100.8046875 371.1484375 C-99.90878906 371.64472656 -99.01289063 372.14101563 -98.08984375 372.65234375 C-97.26242676 373.11318359 -96.43500977 373.57402344 -95.58251953 374.04882812 C-93.6029475 375.20513692 -93.6029475 375.20513692 -91.51953125 375.05859375 C-91.51953125 375.71859375 -91.51953125 376.37859375 -91.51953125 377.05859375 C-89.01685553 378.78383401 -89.01685553 378.78383401 -85.89453125 380.49609375 C-84.85039062 381.09292969 -83.80625 381.68976563 -82.73046875 382.3046875 C-77.40934752 385.62985219 -77.40934752 385.62985219 -71.51953125 387.05859375 C-71.51953125 387.71859375 -71.51953125 388.37859375 -71.51953125 389.05859375 C-67.99882064 391.05784085 -64.47502121 393.05151544 -60.94824219 395.04003906 C-59.74848222 395.71754293 -58.54958309 396.39657356 -57.3515625 397.07714844 C-55.63116956 398.05412655 -53.90742716 399.02519907 -52.18359375 399.99609375 C-51.1467041 400.58261719 -50.10981445 401.16914063 -49.04150391 401.7734375 C-46.69429322 403.20993766 -46.69429322 403.20993766 -44.51953125 403.05859375 C-44.51953125 403.71859375 -44.51953125 404.37859375 -44.51953125 405.05859375 C-42.39720146 406.23035893 -40.27195334 407.3961416 -38.14453125 408.55859375 C-37.54125 408.89246094 -36.93796875 409.22632813 -36.31640625 409.5703125 C-33.10538348 411.44633313 -33.10538348 411.44633313 -29.51953125 412.05859375 C-29.51953125 412.71859375 -29.51953125 413.37859375 -29.51953125 414.05859375 C-27.20953125 414.71859375 -24.89953125 415.37859375 -22.51953125 416.05859375 C-22.51953125 416.71859375 -22.51953125 417.37859375 -22.51953125 418.05859375 C-21.63265625 418.49171875 -20.74578125 418.92484375 -19.83203125 419.37109375 C-16.51953125 421.05859375 -16.51953125 421.05859375 -13.95703125 422.80859375 C-10.88462535 424.38418652 -9.78765648 423.99584888 -6.51953125 423.05859375 C-4.44060974 421.87955739 -4.44060974 421.87955739 -2.45703125 420.37109375 C1.06860958 417.91311786 4.60982694 415.92734948 8.48046875 414.05859375 C12.96565977 411.87829256 17.02885084 409.47440544 21.12109375 406.63671875 C24.86716901 404.13106576 28.77866294 401.91875979 32.68359375 399.671875 C34.52278396 398.61100132 36.35020504 397.52940922 38.1640625 396.42578125 C40.5362945 395.02564432 42.90172302 394.01641359 45.48046875 393.05859375 C45.48046875 392.39859375 45.48046875 391.73859375 45.48046875 391.05859375 C46.16496094 390.80851562 46.84945312 390.5584375 47.5546875 390.30078125 C50.96430456 388.85317347 54.10566295 387.05532503 57.29296875 385.18359375 C62.27696905 382.29227231 67.28511088 379.55236553 72.48046875 377.05859375 C72.48046875 376.39859375 72.48046875 375.73859375 72.48046875 375.05859375 C73.19589844 374.78273438 73.91132813 374.506875 74.6484375 374.22265625 C77.4378573 373.07610853 80.10337233 371.7963226 82.79296875 370.43359375 C83.67597656 369.98757813 84.55898438 369.5415625 85.46875 369.08203125 C86.13261719 368.74429687 86.79648437 368.4065625 87.48046875 368.05859375 C87.48046875 367.39859375 87.48046875 366.73859375 87.48046875 366.05859375 C89.79046875 365.39859375 92.10046875 364.73859375 94.48046875 364.05859375 C94.48046875 363.39859375 94.48046875 362.73859375 94.48046875 362.05859375 C95.56328125 361.65640625 95.56328125 361.65640625 96.66796875 361.24609375 C99.47138256 360.06243014 101.90267939 358.6697121 104.48046875 357.05859375 C107.73785717 355.02272599 110.87656858 353.39718524 114.48046875 352.05859375 C114.48046875 351.39859375 114.48046875 350.73859375 114.48046875 350.05859375 C115.19332031 349.78917969 115.90617187 349.51976562 116.640625 349.2421875 C119.52755129 348.03897063 122.18707434 346.64342212 124.91796875 345.12109375 C128.73549894 343.0111345 132.5585945 340.96653257 136.48046875 339.05859375 C136.48046875 338.39859375 136.48046875 337.73859375 136.48046875 337.05859375 C137.46273437 336.70474609 137.46273437 336.70474609 138.46484375 336.34375 C142.38896568 334.67142343 146.02674431 332.6044189 149.73046875 330.49609375 C150.82875 329.87831055 150.82875 329.87831055 151.94921875 329.24804688 C155.42039803 327.43923723 155.42039803 327.43923723 158.48046875 325.05859375 C158.59155514 322.47548805 158.63717121 319.91862745 158.64109802 317.33451843 C158.64618584 316.51569225 158.65127366 315.69686606 158.65651566 314.85322696 C158.67231005 312.08794411 158.6807835 309.3226875 158.68920898 306.55737305 C158.69874174 304.58344351 158.70863263 302.60951568 158.71885681 300.6355896 C158.75030605 294.13468423 158.77051438 287.63376579 158.7890625 281.1328125 C158.79400848 279.47614386 158.79400848 279.47614386 158.79905438 277.78600717 C158.82983567 267.37810783 158.85655516 256.97020571 158.87347317 246.56227398 C158.89539763 233.22854068 158.93739812 219.89520922 159.00691074 206.56163663 C159.05407845 197.19772702 159.07839701 187.8339261 159.08567005 178.46990138 C159.09063699 172.87151694 159.10581667 167.27358485 159.14541435 161.67532921 C159.18216668 156.40982366 159.19072791 151.14503093 159.17740822 145.87942123 C159.17746236 143.94439028 159.18783526 142.00932866 159.20915985 140.07441521 C159.23668202 137.43661328 159.22740616 134.80143982 159.20872498 132.16362 C159.2255199 131.39387287 159.24231483 130.62412575 159.2596187 129.83105296 C159.28210644 127.42010407 159.28210644 127.42010407 158.48046875 124.05859375 C155.34089712 121.30509705 153.68434627 120.05859375 149.48046875 120.05859375 C149.48046875 119.39859375 149.48046875 118.73859375 149.48046875 118.05859375 C145.75081736 116.02423844 143.81141833 115.05859375 139.48046875 115.05859375 C139.15046875 114.06859375 138.82046875 113.07859375 138.48046875 112.05859375 C136.46538517 111.32535579 136.46538517 111.32535579 134.48046875 111.05859375 C134.48046875 110.39859375 134.48046875 109.73859375 134.48046875 109.05859375 C131.85832547 107.55339988 129.23302667 106.05428056 126.60546875 104.55859375 C125.85910156 104.12933594 125.11273438 103.70007813 124.34375 103.2578125 C123.62832031 102.85175781 122.91289062 102.44570312 122.17578125 102.02734375 C121.51594238 101.65029297 120.85610352 101.27324219 120.17626953 100.88476562 C118.49519729 99.91260215 118.49519729 99.91260215 116.48046875 100.05859375 C116.48046875 99.39859375 116.48046875 98.73859375 116.48046875 98.05859375 C113.51046875 97.06859375 110.54046875 96.07859375 107.48046875 95.05859375 C107.48046875 94.39859375 107.48046875 93.73859375 107.48046875 93.05859375 C106.02509307 92.22010571 104.56606502 91.38795441 103.10546875 90.55859375 C102.29335938 90.09453125 101.48125 89.63046875 100.64453125 89.15234375 C98.58710001 87.90823516 98.58710001 87.90823516 96.48046875 88.05859375 C96.15046875 87.06859375 95.82046875 86.07859375 95.48046875 85.05859375 C93.68529188 84.03874464 93.68529188 84.03874464 91.54296875 83.37109375 C90.83269531 83.11972656 90.12242187 82.86835937 89.390625 82.609375 C87.49151384 81.96624175 87.49151384 81.96624175 85.48046875 82.05859375 C85.48046875 81.39859375 85.48046875 80.73859375 85.48046875 80.05859375 C83.83046875 79.72859375 82.18046875 79.39859375 80.48046875 79.05859375 C80.48046875 78.39859375 80.48046875 77.73859375 80.48046875 77.05859375 C78.35813896 75.88682857 76.23289084 74.7210459 74.10546875 73.55859375 C73.5021875 73.22472656 72.89890625 72.89085937 72.27734375 72.546875 C69.06632098 70.67085437 69.06632098 70.67085437 65.48046875 70.05859375 C65.48046875 69.39859375 65.48046875 68.73859375 65.48046875 68.05859375 C63.27594333 66.76003768 61.06723579 65.4697118 58.85546875 64.18359375 C58.23800781 63.81878906 57.62054688 63.45398438 56.984375 63.078125 C53.23940039 60.90998181 49.66219658 59.28094496 45.48046875 58.05859375 C45.48046875 57.39859375 45.48046875 56.73859375 45.48046875 56.05859375 C44.52333984 55.55199219 44.52333984 55.55199219 43.546875 55.03515625 C42.72058594 54.58914062 41.89429688 54.143125 41.04296875 53.68359375 C40.21925781 53.24273437 39.39554688 52.801875 38.546875 52.34765625 C36.48046875 51.05859375 36.48046875 51.05859375 35.48046875 49.05859375 C33.27254285 48.0338037 33.27254285 48.0338037 30.66796875 47.12109375 C27.10273835 45.82033761 24.48390736 44.3572085 21.48046875 42.05859375 C18.83112053 41.34426254 18.83112053 41.34426254 16.48046875 41.05859375 C16.48046875 40.39859375 16.48046875 39.73859375 16.48046875 39.05859375 C15.50207031 38.55070312 14.52367187 38.0428125 13.515625 37.51953125 C6.85224248 34.02922853 0.37260041 30.5841194 -5.6875 26.08984375 C-9.94610801 23.69267421 -12.69062241 25.54531922 -16.26953125 27.99609375 Z " fill="#3A40B8" transform="translate(256.51953125,33.94140625)"/>
<path d="M0 0 C0 0.66 0 1.32 0 2 C1.65 2.33 3.3 2.66 5 3 C5 3.66 5 4.32 5 5 C5.721875 5.25394531 6.44375 5.50789062 7.1875 5.76953125 C14.71512886 9.06286888 20.81225069 15.02041781 25 22 C25 22.66 25 23.32 25 24 C26.216875 23.54625 27.43375 23.0925 28.6875 22.625 C42.40146044 18.12477348 59.57010483 15.91885916 72.8984375 22.41796875 C75.51022863 24.38409404 76.65836942 26.01669365 78 29 C78.29296875 32.11328125 78.29296875 32.11328125 78.1875 35.3125 C78.16042969 36.38113281 78.13335937 37.44976562 78.10546875 38.55078125 C78.05326172 39.76314453 78.05326172 39.76314453 78 41 C77.34 41 76.68 41 76 41 C75.88398438 41.73089844 75.76796875 42.46179688 75.6484375 43.21484375 C73.31435032 53.24017002 64.94705372 60.84910356 58 68 C57.52353027 68.49693359 57.04706055 68.99386719 56.55615234 69.50585938 C50.66196019 75.64538943 50.66196019 75.64538943 48 78 C47.34 78 46.68 78 46 78 C45.67 78.99 45.34 79.98 45 81 C43.07013106 82.58998158 41.15875206 84.05684573 39.125 85.5 C35.87864876 87.83644757 32.82420521 90.15862637 30 93 C27.3125 94.1875 27.3125 94.1875 25 95 C25 95.66 25 96.32 25 97 C23.62131603 97.96507878 22.23364943 98.91893531 20.8125 99.8203125 C18.97470561 101.01646316 17.24316389 102.29508617 15.5 103.625 C11.6338361 106.54144859 7.73466028 109.40949798 3.8125 112.25 C3.21824219 112.68650879 2.62398437 113.12301758 2.01171875 113.57275391 C-1.20870059 115.89329711 -4.23416784 117.72344672 -8 119 C-8 119.66 -8 120.32 -8 121 C-8.66 121 -9.32 121 -10 121 C-9.97905273 121.5576001 -9.95810547 122.1152002 -9.93652344 122.68969727 C-9.21554708 144.90078853 -13.68587502 164.40108473 -28.62890625 181.51953125 C-39.8097358 193.2161157 -39.8097358 193.2161157 -45 194 C-45 194.66 -45 195.32 -45 196 C-48.49525387 198.4569958 -52.08223968 199.86524381 -56.125 201.1875 C-57.15882813 201.53167969 -58.19265625 201.87585938 -59.2578125 202.23046875 C-62 203 -62 203 -65 203 C-65 203.66 -65 204.32 -65 205 C-84.65819518 209.64497439 -102.34393647 207.17666753 -121 200 C-121 199.34 -121 198.68 -121 198 C-122.093125 197.731875 -123.18625 197.46375 -124.3125 197.1875 C-129.13357731 195.63494968 -129.13357731 195.63494968 -131 193 C-131 192.34 -131 191.68 -131 191 C-135.36219892 188.75280662 -138.25017535 189.00003691 -143 190 C-143.86109375 190.31324219 -144.7221875 190.62648438 -145.609375 190.94921875 C-149.96295381 192.29842693 -154.30871793 192.91812845 -158.8125 193.5625 C-160.52788304 193.81009415 -162.24276365 194.06120351 -163.95703125 194.31640625 C-164.70960205 194.42412354 -165.46217285 194.53184082 -166.23754883 194.64282227 C-168.01907687 194.83488633 -168.01907687 194.83488633 -169 196 C-172.05353475 196.27917065 -175.12272705 196.23185183 -178.1875 196.25 C-179.46463867 196.2809375 -179.46463867 196.2809375 -180.76757812 196.3125 C-187.49170876 196.35410328 -191.62790875 195.05581242 -196.8125 190.5625 C-200.1868023 186.60974588 -200.41906069 182.56710805 -200.3359375 177.48828125 C-199.13901865 168.62273117 -192.59456435 161.55838039 -187 155 C-186.48308594 154.360625 -185.96617187 153.72125 -185.43359375 153.0625 C-182.29577372 149.23213659 -178.86747803 145.97491903 -175.08984375 142.77734375 C-173.64224566 141.54620893 -172.21900758 140.28606954 -170.81640625 139.00390625 C-170.11386719 138.36324219 -169.41132813 137.72257813 -168.6875 137.0625 C-168.05199219 136.47597656 -167.41648438 135.88945312 -166.76171875 135.28515625 C-165 134 -165 134 -162 134 C-162.10441406 132.38158203 -162.10441406 132.38158203 -162.2109375 130.73046875 C-163.03122461 112.22078399 -157.76395213 95.19387415 -145.40478516 81.19287109 C-135.20959455 70.15907695 -135.20959455 70.15907695 -129 67 C-128.34 67 -127.68 67 -127 67 C-127 66.34 -127 65.68 -127 65 C-112.52565376 57.18641486 -100.23861434 54.77721413 -84 55 C-84.0825 53.80375 -84.165 52.6075 -84.25 51.375 C-84.25 41.76549163 -80.66877792 32.28331567 -76 24 C-75.46375 23.01 -74.9275 22.02 -74.375 21 C-73.92125 20.34 -73.4675 19.68 -73 19 C-72.34 19 -71.68 19 -71 19 C-70.62101562 18.13761719 -70.62101562 18.13761719 -70.234375 17.2578125 C-67.39305804 12.06072008 -62.91087556 7.81894667 -57.5 5.5 C-56.675 5.335 -55.85 5.17 -55 5 C-55 4.34 -55 3.68 -55 3 C-52.03 2.34 -49.06 1.68 -46 1 C-46 0.34 -46 -0.32 -46 -1 C-32.44903132 -5.23467771 -13.14522958 -6.57261479 0 0 Z " fill="#393FB7" transform="translate(308,157)"/>
<path d="M0 0 C6.87342364 5.43823692 11.61157232 10.72255359 14.79345703 18.9284668 C15.45345703 19.2584668 16.11345703 19.5884668 16.79345703 19.9284668 C17.68017578 22.0378418 17.68017578 22.0378418 18.48095703 24.6784668 C18.75294922 25.53956055 19.02494141 26.4006543 19.30517578 27.2878418 C19.84663676 30.21606275 19.72277118 32.1061053 18.79345703 34.9284668 C16.29345703 36.0534668 16.29345703 36.0534668 13.79345703 36.9284668 C13.46345703 37.9184668 13.13345703 38.9084668 12.79345703 39.9284668 C11.1531151 40.65750765 9.48043785 41.31501922 7.79345703 41.9284668 C6.11887864 42.91516076 4.45436862 43.91893697 2.79345703 44.9284668 C-0.23509592 46.68111502 -3.28194554 48.40026231 -6.33154297 50.1159668 C-7.14236328 50.57938477 -7.95318359 51.04280273 -8.78857422 51.52026367 C-9.56845703 51.95790039 -10.34833984 52.39553711 -11.15185547 52.84643555 C-11.85842285 53.24628662 -12.56499023 53.6461377 -13.29296875 54.05810547 C-15.20654297 54.9284668 -15.20654297 54.9284668 -18.20654297 54.9284668 C-18.20654297 55.5884668 -18.20654297 56.2484668 -18.20654297 56.9284668 C-19.85654297 57.2584668 -21.50654297 57.5884668 -23.20654297 57.9284668 C-23.20654297 58.5884668 -23.20654297 59.2484668 -23.20654297 59.9284668 C-29.83154297 62.9284668 -29.83154297 62.9284668 -33.20654297 62.9284668 C-33.20654297 63.5884668 -33.20654297 64.2484668 -33.20654297 64.9284668 C-60.88674601 78.9284668 -60.88674601 78.9284668 -65.20654297 78.9284668 C-65.20654297 79.5884668 -65.20654297 80.2484668 -65.20654297 80.9284668 C-71.53121053 84.99432452 -80.83686475 90.39819851 -88.48388672 89.72924805 C-95.08677801 86.65987681 -97.43464405 76.97835214 -99.87451172 70.6472168 C-100.31408203 69.4200293 -100.75365234 68.1928418 -101.20654297 66.9284668 C-101.58939453 65.86370117 -101.97224609 64.79893555 -102.36669922 63.7019043 C-103.53355026 58.45921545 -103.49615093 53.40714287 -103.45654297 48.0534668 C-103.46427734 47.01577148 -103.47201172 45.97807617 -103.47998047 44.90893555 C-103.45611508 35.44630757 -102.30737503 27.85212798 -97.33154297 19.7409668 C-96.99251953 19.16411133 -96.65349609 18.58725586 -96.30419922 17.99291992 C-95.29482885 16.29080677 -94.25092239 14.60932651 -93.20654297 12.9284668 C-92.85043945 12.34758301 -92.49433594 11.76669922 -92.12744141 11.16821289 C-91.20990019 9.71791952 -90.21418882 8.31766893 -89.20654297 6.9284668 C-88.54654297 6.9284668 -87.88654297 6.9284668 -87.20654297 6.9284668 C-86.96935547 6.34967773 -86.73216797 5.77088867 -86.48779297 5.17456055 C-82.20622331 -2.33123993 -72.82834206 -6.69120747 -65.20654297 -10.0715332 C-64.55556641 -10.37961914 -63.90458984 -10.68770508 -63.23388672 -11.00512695 C-41.94252129 -20.78511679 -17.40167052 -13.47571424 0 0 Z " fill="#000002" transform="translate(262.20654296875,239.071533203125)"/>
<path d="M0 0 C0.81726563 0.70125 1.63453125 1.4025 2.4765625 2.125 C3.25257813 2.764375 4.02859375 3.40375 4.828125 4.0625 C9.4366453 7.95041531 13.03105973 11.13648851 14.4765625 17.125 C15.1365625 17.455 15.7965625 17.785 16.4765625 18.125 C21.896908 27.42267294 22.17220013 39.97981923 20.01660156 50.33447266 C18.9093451 54.44398689 17.55162583 58.39573125 15.4765625 62.125 C13.9915625 62.62 13.9915625 62.62 12.4765625 63.125 C11.46304586 64.78348177 10.46535455 66.45165961 9.4765625 68.125 C6.9140625 70.9375 6.9140625 70.9375 4.4765625 73.125 C3.8165625 73.125 3.1565625 73.125 2.4765625 73.125 C2.4765625 73.785 2.4765625 74.445 2.4765625 75.125 C0.54286019 76.13232399 -1.39554056 77.13063288 -3.3359375 78.125 C-4.41488281 78.681875 -5.49382812 79.23875 -6.60546875 79.8125 C-9.5234375 81.125 -9.5234375 81.125 -12.5234375 81.125 C-12.5234375 81.785 -12.5234375 82.445 -12.5234375 83.125 C-14.5034375 83.125 -16.4834375 83.125 -18.5234375 83.125 C-18.86375 82.44695312 -19.2040625 81.76890625 -19.5546875 81.0703125 C-24.40028607 71.76573228 -31.72102277 59.02620737 -41.5234375 54.125 C-41.5234375 53.465 -41.5234375 52.805 -41.5234375 52.125 C-42.1628125 51.898125 -42.8021875 51.67125 -43.4609375 51.4375 C-47.65664011 49.63934174 -51.56244306 47.38595979 -55.5234375 45.125 C-55.5234375 44.465 -55.5234375 43.805 -55.5234375 43.125 C-56.85375 42.939375 -56.85375 42.939375 -58.2109375 42.75 C-61.26568929 42.17363174 -63.66814647 41.30890116 -66.5234375 40.125 C-68.85092444 39.43820058 -71.18330406 38.76738957 -73.5234375 38.125 C-73.93783363 26.52190834 -70.29686027 15.02101516 -62.5234375 6.125 C-61.8634375 6.125 -61.2034375 6.125 -60.5234375 6.125 C-60.2759375 5.526875 -60.0284375 4.92875 -59.7734375 4.3125 C-55.95422704 -2.3711183 -46.4914789 -5.58035188 -39.5234375 -7.875 C-25.94182867 -11.34264481 -10.8828655 -8.73197468 0 0 Z " fill="#010103" transform="translate(310.5234375,174.875)"/>
<path d="M0 0 C0 4.62 0 9.24 0 14 C-0.66 14 -1.32 14 -2 14 C-2.103125 14.99 -2.20625 15.98 -2.3125 17 C-2.90808706 21.28297163 -4.38595027 24.99996371 -6 29 C-6.66 29 -7.32 29 -8 29 C-8.185625 30.11375 -8.185625 30.11375 -8.375 31.25 C-8.95486701 33.80141485 -9.73708739 35.7267573 -11 38 C-11.66 38 -12.32 38 -13 38 C-13.09152344 38.59039062 -13.18304688 39.18078125 -13.27734375 39.7890625 C-14.65020948 43.98928955 -18.64873193 46.31315725 -22 49 C-23.00353516 49.81404297 -23.00353516 49.81404297 -24.02734375 50.64453125 C-30.13109357 55.4187514 -36.14407876 59.21440788 -44 60 C-44 60.66 -44 61.32 -44 62 C-50.01528261 63.73744066 -55.43732355 64.35346896 -61.6875 64.3125 C-62.5645459 64.30831055 -63.4415918 64.30412109 -64.34521484 64.29980469 C-75.32325837 64.11028474 -84.99887944 61.4474509 -95 57 C-95 56.34 -95 55.68 -95 55 C-96.65 54.34 -98.3 53.68 -100 53 C-99 50 -99 50 -96.59375 48.75390625 C-95.06234375 48.16416016 -95.06234375 48.16416016 -93.5 47.5625 C-88.89414359 45.75305641 -84.39949076 43.83725599 -79.9375 41.69921875 C-78 41 -78 41 -74 41 C-74 40.34 -74 39.68 -74 39 C-72.98421875 38.49210937 -71.9684375 37.98421875 -70.921875 37.4609375 C-70.2609082 37.13037354 -69.59994141 36.79980957 -68.91894531 36.45922852 C-67.46542921 35.73263407 -66.0116503 35.00656514 -64.55761719 34.28100586 C-61.16760569 32.58861701 -57.78017922 30.89223019 -54.40625 29.16796875 C-53.3646875 28.63816406 -52.323125 28.10835938 -51.25 27.5625 C-50.32703125 27.08941406 -49.4040625 26.61632812 -48.453125 26.12890625 C-46 25 -46 25 -43.859375 24.52734375 C-41.91019539 24.13928679 -41.91019539 24.13928679 -40.61254883 22.59741211 C-38.93560575 20.9362102 -37.42626111 20.00043386 -35.33984375 18.9140625 C-34.6329541 18.54297363 -33.92606445 18.17188477 -33.19775391 17.78955078 C-32.45187012 17.40524902 -31.70598633 17.02094727 -30.9375 16.625 C-30.17614746 16.22651855 -29.41479492 15.82803711 -28.63037109 15.41748047 C-23.75854153 12.87651136 -18.85533476 10.40930381 -13.8828125 8.0703125 C-11.88302916 6.93350621 -10.59781684 5.64042529 -9 4 C-2.99331104 0 -2.99331104 0 0 0 Z " fill="#020206" transform="translate(285,287)"/>
<path d="M0 0 C0.29132813 1.0621875 0.58265625 2.124375 0.8828125 3.21875 C3.79014918 13.58133387 3.79014918 13.58133387 9.765625 22.421875 C11.1916051 24.24496349 11.58783004 25.74287882 12 28 C5.54208424 31.45423401 -0.76340555 31.68441919 -8 32 C-8 32.66 -8 33.32 -8 34 C-10.79192205 34.05380578 -13.5828141 34.09357669 -16.375 34.125 C-17.1690625 34.14175781 -17.963125 34.15851563 -18.78125 34.17578125 C-20.85492015 34.19335473 -22.92883241 34.10335168 -25 34 C-25.66 33.34 -26.32 32.68 -27 32 C-26.45449345 20.62458397 -13.96681061 10.31441037 -6 3 C-2.35205184 0 -2.35205184 0 0 0 Z " fill="#030309" transform="translate(148,306)"/>
<path d="M0 0 C2.64590014 -0.02684679 5.29153096 -0.04676357 7.9375 -0.0625 C8.69224609 -0.07087891 9.44699219 -0.07925781 10.22460938 -0.08789062 C12.14994313 -0.09652441 14.07535581 -0.05224333 16 0 C17 1 17 1 17.0625 4.0625 C17.041875 5.031875 17.02125 6.00125 17 7 C16.34 7 15.68 7 15 7 C14.9071875 8.04414063 14.9071875 8.04414063 14.8125 9.109375 C13.74297515 12.91441533 11.56743609 15.35314078 9 18.25 C8.50741699 18.81847656 8.01483398 19.38695312 7.50732422 19.97265625 C3.21924013 24.87016512 -1.32800119 29.46957692 -6 34 C-6.93877709 34.9988012 -7.87651522 35.99858163 -8.8125 37 C-10.97015877 38.97271659 -12.12979666 39.68108852 -15 40 C-14.7525 38.453125 -14.7525 38.453125 -14.5 36.875 C-13.14762094 25.74237234 -14.1287415 14.9936437 -16 4 C-10.61972975 2.80911014 -5.54708616 1.7080481 0 2 C0 1.34 0 0.68 0 0 Z " fill="#020207" transform="translate(356,189)"/>
<path d="M0 0 C-1.875 3.875 -1.875 3.875 -3 5 C-3.11040026 7.94535005 -3.15497362 10.86775257 -3.15821838 13.8139801 C-3.16315636 14.74996802 -3.16809434 15.68595593 -3.17318195 16.65030712 C-3.18863833 19.81187277 -3.19693948 22.973418 -3.20532227 26.13500977 C-3.2148944 28.39128807 -3.22490408 30.64756455 -3.23532104 32.90383911 C-3.2624482 39.05026651 -3.28341533 45.19670165 -3.30332303 51.3431561 C-3.32513459 57.75872805 -3.35254682 64.17427593 -3.37937927 70.58982849 C-3.42368393 81.36480735 -3.46450805 92.13979299 -3.50268555 102.91479492 C-3.54202501 114.01506514 -3.58344749 125.11532435 -3.62768555 136.21557617 C-3.63177196 137.24121507 -3.63177196 137.24121507 -3.63594092 138.28757394 C-3.64962014 141.71765576 -3.66334046 145.14773742 -3.67708123 148.57781899 C-3.79109382 177.05185636 -3.89781876 205.52591788 -4 234 C-4.33 234 -4.66 234 -5 234 C-5.06838351 204.47863425 -5.12150094 174.95727223 -5.15319599 145.43584395 C-5.15694827 141.95348568 -5.16083122 138.47112757 -5.16479492 134.98876953 C-5.16558185 134.29547153 -5.16636878 133.60217352 -5.16717956 132.88786648 C-5.18024661 121.65037026 -5.20390756 110.41291991 -5.23145839 99.17545094 C-5.25947654 87.65157517 -5.27594396 76.12773174 -5.28226548 64.60382259 C-5.28618659 58.12814065 -5.2954426 51.65256287 -5.31719017 45.17691422 C-5.3374731 39.08835389 -5.34385046 32.99994115 -5.33932304 26.91135025 C-5.34015193 24.67072753 -5.34616607 22.43010014 -5.35761642 20.18950653 C-5.37243235 17.14219526 -5.36899364 14.09544921 -5.36076355 11.04812622 C-5.36950207 10.1512519 -5.3782406 9.25437758 -5.38724393 8.33032525 C-5.36914349 5.86932564 -5.36914349 5.86932564 -5 2 C-2 0 -2 0 0 0 Z " fill="#262C7E" transform="translate(59,140)"/>
<path d="M0 0 C0.33 0 0.66 0 1 0 C2.31864186 5.00246673 2.1470893 9.99291848 2.125 15.125 C2.12886719 16.03121094 2.13273437 16.93742187 2.13671875 17.87109375 C2.13542969 18.74121094 2.13414062 19.61132812 2.1328125 20.5078125 C2.13168457 21.29816895 2.13055664 22.08852539 2.12939453 22.90283203 C2 25 2 25 1 28 C1.66 28.33 2.32 28.66 3 29 C1.68 29.33 0.36 29.66 -1 30 C-0.83628906 28.9171875 -0.67257812 27.834375 -0.50390625 26.71875 C0.17178024 21.31325808 0.1088986 15.93934383 0.0625 10.5 C0.05798828 9.48679688 0.05347656 8.47359375 0.04882812 7.4296875 C0.03714593 4.95306173 0.02076582 2.47656343 0 0 Z " fill="#1D1F5B" transform="translate(342,199)"/>
<path d="M0 0 C0.66 0.33 1.32 0.66 2 1 C0.56354149 2.60509934 -0.87420706 4.20904424 -2.3125 5.8125 C-3.11300781 6.70582031 -3.91351563 7.59914063 -4.73828125 8.51953125 C-6.45224581 10.39926786 -8.17877604 12.22592747 -10 14 C-10.99 13.67 -11.98 13.34 -13 13 C-8.71 8.71 -4.42 4.42 0 0 Z " fill="#0C0E2A" transform="translate(142,309)"/>
<path d="M0 0 C0.66 0.33 1.32 0.66 2 1 C0.88200014 2.33920838 -0.24461897 3.67122556 -1.375 5 C-2.00148437 5.7425 -2.62796875 6.485 -3.2734375 7.25 C-4.12808594 8.11625 -4.12808594 8.11625 -5 9 C-5.66 9 -6.32 9 -7 9 C-7 9.66 -7 10.32 -7 11 C-7.66 10.67 -8.32 10.34 -9 10 C-8.34 9.01 -7.68 8.02 -7 7 C-6.34 7 -5.68 7 -5 7 C-4.731875 6.401875 -4.46375 5.80375 -4.1875 5.1875 C-3.01506533 3.02775192 -1.80630718 1.64209744 0 0 Z " fill="#101337" transform="translate(180,239)"/>
<path d="M0 0 C0.66 0.33 1.32 0.66 2 1 C-0.46153846 5.8 -0.46153846 5.8 -3.1875 6.8125 C-3.785625 6.874375 -4.38375 6.93625 -5 7 C-5 5 -5 5 -2.5 2.375 C-1.675 1.59125 -0.85 0.8075 0 0 Z " fill="#272D8C" transform="translate(318,243)"/>
</svg>
